<svg xmlns="http://www.w3.org/2000/svg" xmlns:xlink="http://www.w3.org/1999/xlink" width="468.089" height="226" viewBox="0 0 468.089 226">
  <defs>
    <linearGradient id="linear-gradient" x1="0.5" y1="1" x2="0.5" gradientUnits="objectBoundingBox">
      <stop offset="0" stop-color="#aab1b9"/>
      <stop offset="0.21" stop-color="#c2c7cd"/>
      <stop offset="0.54" stop-color="#e3e5e8"/>
      <stop offset="0.815" stop-color="#f7f8f8"/>
      <stop offset="1" stop-color="#fff"/>
    </linearGradient>
    <linearGradient id="linear-gradient-2" y1="0" y2="1" xlink:href="#linear-gradient"/>
    <clipPath id="clip-path">
      <path id="Path_59" data-name="Path 59" d="M2564.794,651.424a102.818,102.818,0,0,1-30.843,4.706,104.2,104.2,0,0,1-50.179-12.985c-.442-.243-.889-.477-1.329-.726a104.281,104.281,0,0,1-51.508,13.712,102.84,102.84,0,0,1-30.844-4.706,185.82,185.82,0,0,0-1.654,24.7c0,65.535,34.4,123.613,84.006,142.528.445-.17.886-.35,1.329-.526,48.893-19.439,82.676-77.055,82.676-142A185.765,185.765,0,0,0,2564.794,651.424Z" transform="translate(-1111.691 -306.005)" fill="#2ea94f"/>
    </clipPath>
  </defs>
  <g id="Group_103" data-name="Group 103" transform="translate(-1139.955 -314)">
    <g id="Group_95" data-name="Group 95" transform="translate(1139.955 314)">
      <g id="Group_89" data-name="Group 89" transform="translate(0 28.407)">
        <g id="Group_46" data-name="Group 46" transform="translate(278.306)">
          <g id="Group_45" data-name="Group 45">
            <g id="Group_6" data-name="Group 6" transform="translate(1.765 156.025)">
              <rect id="Rectangle_8" data-name="Rectangle 8" width="98.769" height="2.963" transform="translate(0 1.85)" fill="#2ea94f"/>
              <g id="Group_5" data-name="Group 5" transform="translate(98.196)">
                <path id="Path_2" data-name="Path 2" d="M3485.608,1402.041a3.332,3.332,0,1,1-3.331-3.332A3.336,3.336,0,0,1,3485.608,1402.041Zm-1.777,0a1.554,1.554,0,1,0-1.554,1.553A1.556,1.556,0,0,0,3483.831,1402.041Z" transform="translate(-3478.945 -1398.709)" fill="#2ea94f"/>
              </g>
            </g>
            <g id="Group_8" data-name="Group 8" transform="translate(3.826 146.991)">
              <rect id="Rectangle_9" data-name="Rectangle 9" width="87.678" height="2.963" transform="translate(0 1.85)" fill="#2ea94f"/>
              <g id="Group_7" data-name="Group 7" transform="translate(87.105)">
                <path id="Path_3" data-name="Path 3" d="M3443.455,1359.871a3.332,3.332,0,1,1-3.331-3.332A3.336,3.336,0,0,1,3443.455,1359.871Zm-1.778,0a1.554,1.554,0,1,0-1.553,1.554A1.556,1.556,0,0,0,3441.677,1359.871Z" transform="translate(-3436.791 -1356.539)" fill="#2ea94f"/>
              </g>
            </g>
            <g id="Group_10" data-name="Group 10" transform="translate(10.331 78.013)">
              <rect id="Rectangle_10" data-name="Rectangle 10" width="173.362" height="2.963" transform="translate(0 1.85)" fill="#2ea94f"/>
              <g id="Group_9" data-name="Group 9" transform="translate(172.789)">
                <path id="Path_4" data-name="Path 4" d="M3873.781,1037.887a3.332,3.332,0,1,1-3.331-3.332A3.335,3.335,0,0,1,3873.781,1037.887Zm-1.777,0a1.554,1.554,0,1,0-1.554,1.554A1.556,1.556,0,0,0,3872,1037.887Z" transform="translate(-3867.118 -1034.555)" fill="#2ea94f"/>
              </g>
            </g>
            <g id="Group_12" data-name="Group 12" transform="translate(12.362 86.115)">
              <rect id="Rectangle_11" data-name="Rectangle 11" width="153.98" height="2.963" transform="translate(0 1.85)" fill="#2ea94f"/>
              <g id="Group_11" data-name="Group 11" transform="translate(153.407)">
                <path id="Path_5" data-name="Path 5" d="M3792.792,1075.709a3.332,3.332,0,1,1-3.332-3.332A3.336,3.336,0,0,1,3792.792,1075.709Zm-1.778,0a1.554,1.554,0,1,0-1.554,1.554A1.555,1.555,0,0,0,3791.015,1075.709Z" transform="translate(-3786.128 -1072.377)" fill="#2ea94f"/>
              </g>
            </g>
            <g id="Group_14" data-name="Group 14" transform="translate(9.038 137.957)">
              <rect id="Rectangle_12" data-name="Rectangle 12" width="73.414" height="2.963" transform="translate(0 1.85)" fill="#2ea94f"/>
              <g id="Group_13" data-name="Group 13" transform="translate(72.842)">
                <path id="Path_6" data-name="Path 6" d="M3401.207,1317.7a3.332,3.332,0,1,1-3.331-3.332A3.335,3.335,0,0,1,3401.207,1317.7Zm-1.777,0a1.554,1.554,0,1,0-1.554,1.554A1.556,1.556,0,0,0,3399.43,1317.7Z" transform="translate(-3394.544 -1314.369)" fill="#2ea94f"/>
              </g>
            </g>
            <g id="Group_16" data-name="Group 16" transform="translate(0 128.923)">
              <rect id="Rectangle_13" data-name="Rectangle 13" width="73.414" height="2.963" transform="translate(0 1.85)" fill="#2ea94f"/>
              <g id="Group_15" data-name="Group 15" transform="translate(72.842)">
                <path id="Path_7" data-name="Path 7" d="M3359.019,1275.531a3.332,3.332,0,1,1-3.332-3.332A3.336,3.336,0,0,1,3359.019,1275.531Zm-1.778,0a1.554,1.554,0,1,0-1.554,1.554A1.556,1.556,0,0,0,3357.241,1275.531Z" transform="translate(-3352.355 -1272.199)" fill="#2ea94f"/>
              </g>
            </g>
            <g id="Group_18" data-name="Group 18" transform="translate(11.779 96.014)">
              <rect id="Rectangle_14" data-name="Rectangle 14" width="29.749" height="2.963" transform="matrix(0.707, 0.707, -0.707, 0.707, 75.549, 0)" fill="#2ea94f"/>
              <g id="Group_17" data-name="Group 17" transform="translate(94.077 20.623)">
                <path id="Path_8" data-name="Path 8" d="M3513.123,1218.181a3.332,3.332,0,1,1-3.332-3.332A3.336,3.336,0,0,1,3513.123,1218.181Zm-1.778,0a1.554,1.554,0,1,0-1.554,1.554A1.556,1.556,0,0,0,3511.346,1218.181Z" transform="translate(-3506.46 -1214.849)" fill="#2ea94f"/>
              </g>
              <rect id="Rectangle_15" data-name="Rectangle 15" width="75.471" height="2.963" transform="translate(0 0.118)" fill="#2ea94f"/>
            </g>
            <g id="Group_21" data-name="Group 21" transform="translate(7.702 122.399)">
              <g id="Group_20" data-name="Group 20" transform="translate(97.439 23.41)">
                <rect id="Rectangle_16" data-name="Rectangle 16" width="27.442" height="2.963" transform="translate(0 1.85)" fill="#2ea94f"/>
                <g id="Group_19" data-name="Group 19" transform="translate(26.869)">
                  <path id="Path_9" data-name="Path 9" d="M3635.209,1354.352a3.332,3.332,0,1,1-3.332-3.332A3.335,3.335,0,0,1,3635.209,1354.352Zm-1.778,0a1.554,1.554,0,1,0-1.554,1.554A1.556,1.556,0,0,0,3633.432,1354.352Z" transform="translate(-3628.546 -1351.02)" fill="#2ea94f"/>
                </g>
              </g>
              <rect id="Rectangle_17" data-name="Rectangle 17" width="36.95" height="2.963" transform="translate(73.395 0) rotate(45)" fill="#2ea94f"/>
              <rect id="Rectangle_18" data-name="Rectangle 18" width="73.414" height="2.963" transform="translate(0 0)" fill="#2ea94f"/>
            </g>
            <g id="Group_23" data-name="Group 23" transform="translate(9.464 113.29)">
              <rect id="Rectangle_19" data-name="Rectangle 19" width="40.275" height="2.963" transform="translate(97.455 25.26)" fill="#2ea94f"/>
              <g id="Group_22" data-name="Group 22" transform="translate(137.157 23.41)">
                <path id="Path_10" data-name="Path 10" d="M3703.412,1311.83a3.332,3.332,0,1,1-3.332-3.332A3.336,3.336,0,0,1,3703.412,1311.83Zm-1.778,0a1.554,1.554,0,1,0-1.554,1.554A1.555,1.555,0,0,0,3701.634,1311.83Z" transform="translate(-3696.748 -1308.498)" fill="#2ea94f"/>
              </g>
              <rect id="Rectangle_20" data-name="Rectangle 20" width="36.95" height="2.963" transform="translate(73.411 0) rotate(45)" fill="#2ea94f"/>
              <rect id="Rectangle_21" data-name="Rectangle 21" width="73.414" height="2.963" fill="#2ea94f"/>
            </g>
            <g id="Group_25" data-name="Group 25" transform="translate(11.242 104.221)">
              <rect id="Rectangle_22" data-name="Rectangle 22" width="28.083" height="2.963" transform="translate(97.455 25.26)" fill="#2ea94f"/>
              <g id="Group_24" data-name="Group 24" transform="translate(124.966 23.41)">
                <path id="Path_11" data-name="Path 11" d="M3654.8,1269.5a3.332,3.332,0,1,1-3.331-3.332A3.336,3.336,0,0,1,3654.8,1269.5Zm-1.778,0a1.554,1.554,0,1,0-1.553,1.554A1.556,1.556,0,0,0,3653.023,1269.5Z" transform="translate(-3648.138 -1266.165)" fill="#2ea94f"/>
              </g>
              <rect id="Rectangle_23" data-name="Rectangle 23" width="36.95" height="2.963" transform="translate(73.411 0) rotate(45)" fill="#2ea94f"/>
              <rect id="Rectangle_24" data-name="Rectangle 24" width="73.415" height="2.963" transform="translate(0 0)" fill="#2ea94f"/>
            </g>
            <g id="Group_27" data-name="Group 27" transform="translate(27.119)">
              <rect id="Rectangle_25" data-name="Rectangle 25" width="73.414" height="2.963" transform="translate(0 1.85)" fill="#2ea94f"/>
              <g id="Group_26" data-name="Group 26" transform="translate(72.842)">
                <path id="Path_12" data-name="Path 12" d="M3482.277,677.064a3.332,3.332,0,1,1,3.331-3.332A3.336,3.336,0,0,1,3482.277,677.064Zm0-4.886a1.554,1.554,0,1,0,1.554,1.554A1.556,1.556,0,0,0,3482.277,672.178Z" transform="translate(-3478.945 -670.4)" fill="#2ea94f"/>
              </g>
            </g>
            <g id="Group_29" data-name="Group 29" transform="translate(18.089 9.034)">
              <rect id="Rectangle_26" data-name="Rectangle 26" width="73.415" height="2.963" transform="translate(0 1.85)" fill="#2ea94f"/>
              <g id="Group_28" data-name="Group 28" transform="translate(72.842)">
                <path id="Path_13" data-name="Path 13" d="M3440.124,719.234a3.332,3.332,0,1,1,3.331-3.332A3.336,3.336,0,0,1,3440.124,719.234Zm0-4.886a1.554,1.554,0,1,0,1.553,1.554A1.556,1.556,0,0,0,3440.124,714.348Z" transform="translate(-3436.791 -712.57)" fill="#2ea94f"/>
              </g>
            </g>
            <g id="Group_31" data-name="Group 31" transform="translate(12.362 69.91)">
              <rect id="Rectangle_27" data-name="Rectangle 27" width="153.98" height="2.963" transform="translate(0 1.85)" fill="#2ea94f"/>
              <g id="Group_30" data-name="Group 30" transform="translate(153.407)">
                <path id="Path_14" data-name="Path 14" d="M3789.461,1003.395a3.332,3.332,0,1,1,3.332-3.332A3.336,3.336,0,0,1,3789.461,1003.395Zm0-4.886a1.554,1.554,0,1,0,1.554,1.554A1.556,1.556,0,0,0,3789.461,998.509Z" transform="translate(-3786.128 -996.731)" fill="#2ea94f"/>
              </g>
            </g>
            <g id="Group_33" data-name="Group 33" transform="translate(9.038 18.068)">
              <rect id="Rectangle_28" data-name="Rectangle 28" width="73.414" height="2.963" transform="translate(0 1.85)" fill="#2ea94f"/>
              <g id="Group_32" data-name="Group 32" transform="translate(72.842)">
                <path id="Path_15" data-name="Path 15" d="M3397.876,761.4a3.332,3.332,0,1,1,3.331-3.332A3.336,3.336,0,0,1,3397.876,761.4Zm0-4.886a1.554,1.554,0,1,0,1.554,1.554A1.556,1.556,0,0,0,3397.876,756.518Z" transform="translate(-3394.544 -754.74)" fill="#2ea94f"/>
              </g>
            </g>
            <g id="Group_35" data-name="Group 35" transform="translate(0 27.102)">
              <rect id="Rectangle_29" data-name="Rectangle 29" width="73.414" height="2.963" transform="translate(0 1.85)" fill="#2ea94f"/>
              <g id="Group_34" data-name="Group 34" transform="translate(72.842)">
                <path id="Path_16" data-name="Path 16" d="M3355.687,803.573a3.332,3.332,0,1,1,3.332-3.332A3.336,3.336,0,0,1,3355.687,803.573Zm0-4.886a1.554,1.554,0,1,0,1.554,1.554A1.556,1.556,0,0,0,3355.687,798.687Z" transform="translate(-3352.355 -796.909)" fill="#2ea94f"/>
              </g>
            </g>
            <g id="Group_37" data-name="Group 37" transform="translate(11.779 39.388)">
              <rect id="Rectangle_30" data-name="Rectangle 30" width="29.749" height="2.963" transform="matrix(0.707, -0.707, 0.707, 0.707, 73.454, 25.191)" fill="#2ea94f"/>
              <g id="Group_36" data-name="Group 36" transform="translate(94.077)">
                <path id="Path_17" data-name="Path 17" d="M3509.792,860.924a3.332,3.332,0,1,1,3.332-3.332A3.336,3.336,0,0,1,3509.792,860.924Zm0-4.886a1.554,1.554,0,1,0,1.554,1.554A1.556,1.556,0,0,0,3509.792,856.038Z" transform="translate(-3506.46 -854.26)" fill="#2ea94f"/>
              </g>
              <rect id="Rectangle_31" data-name="Rectangle 31" width="75.471" height="2.963" transform="translate(0 24.205)" fill="#2ea94f"/>
            </g>
            <g id="Group_40" data-name="Group 40" transform="translate(7.702 10.216)">
              <g id="Group_39" data-name="Group 39" transform="translate(97.439)">
                <rect id="Rectangle_32" data-name="Rectangle 32" width="27.442" height="2.963" transform="translate(0 1.85)" fill="#2ea94f"/>
                <g id="Group_38" data-name="Group 38" transform="translate(26.869)">
                  <path id="Path_18" data-name="Path 18" d="M3631.878,724.753a3.332,3.332,0,1,1,3.332-3.332A3.336,3.336,0,0,1,3631.878,724.753Zm0-4.886a1.554,1.554,0,1,0,1.554,1.554A1.556,1.556,0,0,0,3631.878,719.867Z" transform="translate(-3628.546 -718.089)" fill="#2ea94f"/>
                </g>
              </g>
              <rect id="Rectangle_33" data-name="Rectangle 33" width="36.95" height="2.963" transform="translate(71.3 27.978) rotate(-45)" fill="#2ea94f"/>
              <rect id="Rectangle_34" data-name="Rectangle 34" width="73.414" height="2.963" transform="translate(0 27.11)" fill="#2ea94f"/>
            </g>
            <g id="Group_42" data-name="Group 42" transform="translate(9.464 19.326)">
              <rect id="Rectangle_35" data-name="Rectangle 35" width="40.275" height="2.963" transform="translate(97.455 1.85)" fill="#2ea94f"/>
              <g id="Group_41" data-name="Group 41" transform="translate(137.157)">
                <path id="Path_19" data-name="Path 19" d="M3700.08,767.275a3.332,3.332,0,1,1,3.332-3.332A3.336,3.336,0,0,1,3700.08,767.275Zm0-4.886a1.554,1.554,0,1,0,1.554,1.554A1.556,1.556,0,0,0,3700.08,762.389Z" transform="translate(-3696.748 -760.611)" fill="#2ea94f"/>
              </g>
              <rect id="Rectangle_36" data-name="Rectangle 36" width="36.95" height="2.963" transform="translate(71.316 27.978) rotate(-45)" fill="#2ea94f"/>
              <rect id="Rectangle_37" data-name="Rectangle 37" width="73.414" height="2.963" transform="translate(0 27.11)" fill="#2ea94f"/>
            </g>
            <g id="Group_44" data-name="Group 44" transform="translate(11.242 28.395)">
              <rect id="Rectangle_38" data-name="Rectangle 38" width="28.083" height="2.963" transform="translate(97.455 1.85)" fill="#2ea94f"/>
              <g id="Group_43" data-name="Group 43" transform="translate(124.966)">
                <path id="Path_20" data-name="Path 20" d="M3651.47,809.608a3.332,3.332,0,1,1,3.331-3.332A3.336,3.336,0,0,1,3651.47,809.608Zm0-4.886a1.554,1.554,0,1,0,1.553,1.554A1.555,1.555,0,0,0,3651.47,804.722Z" transform="translate(-3648.138 -802.944)" fill="#2ea94f"/>
              </g>
              <rect id="Rectangle_39" data-name="Rectangle 39" width="36.95" height="2.963" transform="translate(71.316 27.978) rotate(-45)" fill="#2ea94f"/>
              <rect id="Rectangle_40" data-name="Rectangle 40" width="73.415" height="2.963" transform="translate(0 27.111)" fill="#2ea94f"/>
            </g>
          </g>
        </g>
        <g id="Group_88" data-name="Group 88">
          <g id="Group_87" data-name="Group 87">
            <g id="Group_48" data-name="Group 48" transform="translate(83.158)">
              <rect id="Rectangle_41" data-name="Rectangle 41" width="98.769" height="2.963" transform="translate(104.86 4.813) rotate(180)" fill="#2ea94f"/>
              <g id="Group_47" data-name="Group 47">
                <path id="Path_21" data-name="Path 21" d="M2101.408,673.732a3.332,3.332,0,1,1,3.332,3.332A3.336,3.336,0,0,1,2101.408,673.732Zm1.778,0a1.554,1.554,0,1,0,1.554-1.554A1.556,1.556,0,0,0,2103.186,673.732Z" transform="translate(-2101.408 -670.4)" fill="#2ea94f"/>
              </g>
            </g>
            <g id="Group_50" data-name="Group 50" transform="translate(92.189 9.034)">
              <rect id="Rectangle_42" data-name="Rectangle 42" width="87.678" height="2.963" transform="translate(93.769 4.813) rotate(180)" fill="#2ea94f"/>
              <g id="Group_49" data-name="Group 49">
                <path id="Path_22" data-name="Path 22" d="M2143.563,715.9a3.332,3.332,0,1,1,3.332,3.332A3.335,3.335,0,0,1,2143.563,715.9Zm1.778,0a1.554,1.554,0,1,0,1.554-1.554A1.556,1.556,0,0,0,2145.341,715.9Z" transform="translate(-2143.563 -712.57)" fill="#2ea94f"/>
              </g>
            </g>
            <g id="Group_52" data-name="Group 52" transform="translate(0 78.013)">
              <rect id="Rectangle_43" data-name="Rectangle 43" width="173.362" height="2.963" transform="translate(179.453 4.813) rotate(180)" fill="#2ea94f"/>
              <g id="Group_51" data-name="Group 51">
                <path id="Path_23" data-name="Path 23" d="M1713.235,1037.886a3.332,3.332,0,1,1,3.332,3.332A3.336,3.336,0,0,1,1713.235,1037.886Zm1.778,0a1.554,1.554,0,1,0,1.554-1.554A1.556,1.556,0,0,0,1715.013,1037.886Z" transform="translate(-1713.235 -1034.555)" fill="#2ea94f"/>
              </g>
            </g>
            <g id="Group_54" data-name="Group 54" transform="translate(17.35 69.91)">
              <rect id="Rectangle_44" data-name="Rectangle 44" width="153.98" height="2.963" transform="translate(160.071 4.813) rotate(180)" fill="#2ea94f"/>
              <g id="Group_53" data-name="Group 53">
                <path id="Path_24" data-name="Path 24" d="M1794.224,1000.063a3.332,3.332,0,1,1,3.332,3.332A3.336,3.336,0,0,1,1794.224,1000.063Zm1.778,0a1.554,1.554,0,1,0,1.554-1.554A1.556,1.556,0,0,0,1796,1000.063Z" transform="translate(-1794.224 -996.731)" fill="#2ea94f"/>
              </g>
            </g>
            <g id="Group_56" data-name="Group 56" transform="translate(101.239 18.068)">
              <rect id="Rectangle_45" data-name="Rectangle 45" width="73.414" height="2.963" transform="translate(79.506 4.813) rotate(180)" fill="#2ea94f"/>
              <g id="Group_55" data-name="Group 55">
                <path id="Path_25" data-name="Path 25" d="M2185.809,758.071a3.332,3.332,0,1,1,3.332,3.332A3.336,3.336,0,0,1,2185.809,758.071Zm1.778,0a1.554,1.554,0,1,0,1.554-1.554A1.556,1.556,0,0,0,2187.587,758.071Z" transform="translate(-2185.809 -754.74)" fill="#2ea94f"/>
              </g>
            </g>
            <g id="Group_58" data-name="Group 58" transform="translate(110.278 27.102)">
              <rect id="Rectangle_46" data-name="Rectangle 46" width="73.414" height="2.963" transform="translate(79.506 4.813) rotate(180)" fill="#2ea94f"/>
              <g id="Group_57" data-name="Group 57">
                <path id="Path_26" data-name="Path 26" d="M2228,800.241a3.332,3.332,0,1,1,3.332,3.332A3.336,3.336,0,0,1,2228,800.241Zm1.778,0a1.554,1.554,0,1,0,1.554-1.554A1.556,1.556,0,0,0,2229.777,800.241Z" transform="translate(-2227.999 -796.909)" fill="#2ea94f"/>
              </g>
            </g>
            <g id="Group_60" data-name="Group 60" transform="translate(77.264 39.388)">
              <rect id="Rectangle_47" data-name="Rectangle 47" width="29.749" height="2.963" transform="matrix(-0.707, -0.707, 0.707, -0.707, 25.191, 27.286)" fill="#2ea94f"/>
              <g id="Group_59" data-name="Group 59">
                <path id="Path_27" data-name="Path 27" d="M2073.894,857.591a3.332,3.332,0,1,1,3.332,3.332A3.335,3.335,0,0,1,2073.894,857.591Zm1.778,0a1.554,1.554,0,1,0,1.554-1.554A1.556,1.556,0,0,0,2075.672,857.591Z" transform="translate(-2073.894 -854.26)" fill="#2ea94f"/>
              </g>
              <rect id="Rectangle_48" data-name="Rectangle 48" width="75.471" height="2.963" transform="translate(100.74 27.168) rotate(180)" fill="#2ea94f"/>
            </g>
            <g id="Group_63" data-name="Group 63" transform="translate(51.109 10.216)">
              <g id="Group_62" data-name="Group 62">
                <rect id="Rectangle_49" data-name="Rectangle 49" width="27.442" height="2.963" transform="translate(33.533 4.813) rotate(180)" fill="#2ea94f"/>
                <g id="Group_61" data-name="Group 61">
                  <path id="Path_28" data-name="Path 28" d="M1951.807,721.42a3.332,3.332,0,1,1,3.332,3.332A3.336,3.336,0,0,1,1951.807,721.42Zm1.778,0a1.554,1.554,0,1,0,1.554-1.554A1.556,1.556,0,0,0,1953.585,721.42Z" transform="translate(-1951.807 -718.089)" fill="#2ea94f"/>
                </g>
              </g>
              <rect id="Rectangle_50" data-name="Rectangle 50" width="36.95" height="2.963" transform="translate(57.577 30.073) rotate(-135)" fill="#2ea94f"/>
              <rect id="Rectangle_51" data-name="Rectangle 51" width="73.414" height="2.963" transform="translate(130.972 30.073) rotate(180)" fill="#2ea94f"/>
            </g>
            <g id="Group_65" data-name="Group 65" transform="translate(36.498 19.326)">
              <rect id="Rectangle_52" data-name="Rectangle 52" width="40.275" height="2.963" transform="translate(46.366 4.813) rotate(180)" fill="#2ea94f"/>
              <g id="Group_64" data-name="Group 64">
                <path id="Path_29" data-name="Path 29" d="M1883.6,763.943a3.332,3.332,0,1,1,3.332,3.332A3.336,3.336,0,0,1,1883.6,763.943Zm1.778,0a1.554,1.554,0,1,0,1.554-1.554A1.556,1.556,0,0,0,1885.383,763.943Z" transform="translate(-1883.605 -760.611)" fill="#2ea94f"/>
              </g>
              <rect id="Rectangle_53" data-name="Rectangle 53" width="36.95" height="2.963" transform="translate(70.41 30.073) rotate(-135)" fill="#2ea94f"/>
              <rect id="Rectangle_54" data-name="Rectangle 54" width="73.414" height="2.963" transform="translate(143.821 30.073) rotate(180)" fill="#2ea94f"/>
            </g>
            <g id="Group_67" data-name="Group 67" transform="translate(46.912 28.395)">
              <rect id="Rectangle_55" data-name="Rectangle 55" width="28.083" height="2.963" transform="translate(34.175 4.813) rotate(180)" fill="#2ea94f"/>
              <g id="Group_66" data-name="Group 66">
                <path id="Path_30" data-name="Path 30" d="M1932.215,806.276a3.332,3.332,0,1,1,3.332,3.332A3.336,3.336,0,0,1,1932.215,806.276Zm1.778,0a1.554,1.554,0,1,0,1.554-1.554A1.556,1.556,0,0,0,1933.993,806.276Z" transform="translate(-1932.215 -802.944)" fill="#2ea94f"/>
              </g>
              <rect id="Rectangle_56" data-name="Rectangle 56" width="36.95" height="2.963" transform="translate(58.219 30.073) rotate(-135)" fill="#2ea94f"/>
              <rect id="Rectangle_57" data-name="Rectangle 57" width="73.415" height="2.963" transform="translate(131.629 30.073) rotate(180)" fill="#2ea94f"/>
            </g>
            <g id="Group_69" data-name="Group 69" transform="translate(83.158 156.025)">
              <rect id="Rectangle_58" data-name="Rectangle 58" width="98.955" height="2.963" transform="translate(105.046 4.813) rotate(180)" fill="#2ea94f"/>
              <g id="Group_68" data-name="Group 68">
                <path id="Path_31" data-name="Path 31" d="M2104.74,1398.709a3.332,3.332,0,1,1-3.332,3.332A3.336,3.336,0,0,1,2104.74,1398.709Zm0,4.885a1.554,1.554,0,1,0-1.554-1.553A1.555,1.555,0,0,0,2104.74,1403.594Z" transform="translate(-2101.408 -1398.709)" fill="#2ea94f"/>
              </g>
            </g>
            <g id="Group_71" data-name="Group 71" transform="translate(92.189 146.991)">
              <rect id="Rectangle_59" data-name="Rectangle 59" width="73.415" height="2.963" transform="translate(79.506 4.813) rotate(180)" fill="#2ea94f"/>
              <g id="Group_70" data-name="Group 70">
                <path id="Path_32" data-name="Path 32" d="M2146.895,1356.539a3.332,3.332,0,1,1-3.332,3.332A3.336,3.336,0,0,1,2146.895,1356.539Zm0,4.886a1.554,1.554,0,1,0-1.554-1.554A1.556,1.556,0,0,0,2146.895,1361.425Z" transform="translate(-2143.563 -1356.539)" fill="#2ea94f"/>
              </g>
            </g>
            <g id="Group_73" data-name="Group 73" transform="translate(17.35 86.115)">
              <rect id="Rectangle_60" data-name="Rectangle 60" width="153.98" height="2.963" transform="translate(160.071 4.813) rotate(180)" fill="#2ea94f"/>
              <g id="Group_72" data-name="Group 72">
                <path id="Path_33" data-name="Path 33" d="M1797.556,1072.377a3.332,3.332,0,1,1-3.332,3.332A3.336,3.336,0,0,1,1797.556,1072.377Zm0,4.886a1.554,1.554,0,1,0-1.554-1.554A1.556,1.556,0,0,0,1797.556,1077.263Z" transform="translate(-1794.224 -1072.377)" fill="#2ea94f"/>
              </g>
            </g>
            <g id="Group_75" data-name="Group 75" transform="translate(101.239 137.957)">
              <rect id="Rectangle_61" data-name="Rectangle 61" width="73.414" height="2.963" transform="translate(79.506 4.813) rotate(180)" fill="#2ea94f"/>
              <g id="Group_74" data-name="Group 74">
                <path id="Path_34" data-name="Path 34" d="M2189.141,1314.369a3.332,3.332,0,1,1-3.332,3.332A3.336,3.336,0,0,1,2189.141,1314.369Zm0,4.886a1.554,1.554,0,1,0-1.554-1.554A1.556,1.556,0,0,0,2189.141,1319.255Z" transform="translate(-2185.809 -1314.369)" fill="#2ea94f"/>
              </g>
            </g>
            <g id="Group_77" data-name="Group 77" transform="translate(110.278 128.923)">
              <rect id="Rectangle_62" data-name="Rectangle 62" width="73.414" height="2.963" transform="translate(79.506 4.813) rotate(180)" fill="#2ea94f"/>
              <g id="Group_76" data-name="Group 76">
                <path id="Path_35" data-name="Path 35" d="M2231.331,1272.2a3.332,3.332,0,1,1-3.332,3.332A3.336,3.336,0,0,1,2231.331,1272.2Zm0,4.886a1.554,1.554,0,1,0-1.554-1.554A1.556,1.556,0,0,0,2231.331,1277.085Z" transform="translate(-2227.999 -1272.199)" fill="#2ea94f"/>
              </g>
            </g>
            <g id="Group_79" data-name="Group 79" transform="translate(77.264 96.014)">
              <rect id="Rectangle_63" data-name="Rectangle 63" width="29.749" height="2.963" transform="matrix(-0.707, 0.707, -0.707, -0.707, 27.286, 2.095)" fill="#2ea94f"/>
              <g id="Group_78" data-name="Group 78" transform="translate(0 20.623)">
                <path id="Path_36" data-name="Path 36" d="M2077.226,1214.849a3.332,3.332,0,1,1-3.332,3.332A3.336,3.336,0,0,1,2077.226,1214.849Zm0,4.886a1.554,1.554,0,1,0-1.554-1.554A1.555,1.555,0,0,0,2077.226,1219.735Z" transform="translate(-2073.894 -1214.849)" fill="#2ea94f"/>
              </g>
              <rect id="Rectangle_64" data-name="Rectangle 64" width="75.471" height="2.963" transform="translate(100.74 3.081) rotate(180)" fill="#2ea94f"/>
            </g>
            <g id="Group_82" data-name="Group 82" transform="translate(51.109 122.399)">
              <g id="Group_81" data-name="Group 81" transform="translate(0 23.41)">
                <rect id="Rectangle_65" data-name="Rectangle 65" width="27.442" height="2.963" transform="translate(33.533 4.813) rotate(180)" fill="#2ea94f"/>
                <g id="Group_80" data-name="Group 80">
                  <path id="Path_37" data-name="Path 37" d="M1955.138,1351.02a3.332,3.332,0,1,1-3.332,3.332A3.336,3.336,0,0,1,1955.138,1351.02Zm0,4.886a1.554,1.554,0,1,0-1.554-1.554A1.556,1.556,0,0,0,1955.138,1355.906Z" transform="translate(-1951.807 -1351.02)" fill="#2ea94f"/>
                </g>
              </g>
              <rect id="Rectangle_66" data-name="Rectangle 66" width="36.95" height="2.963" transform="translate(59.672 2.095) rotate(135)" fill="#2ea94f"/>
              <rect id="Rectangle_67" data-name="Rectangle 67" width="73.414" height="2.963" transform="translate(130.972 2.963) rotate(180)" fill="#2ea94f"/>
            </g>
            <g id="Group_84" data-name="Group 84" transform="translate(36.498 113.29)">
              <rect id="Rectangle_68" data-name="Rectangle 68" width="40.275" height="2.963" transform="translate(46.366 28.223) rotate(180)" fill="#2ea94f"/>
              <g id="Group_83" data-name="Group 83" transform="translate(0 23.41)">
                <path id="Path_38" data-name="Path 38" d="M1886.937,1308.5a3.332,3.332,0,1,1-3.332,3.332A3.336,3.336,0,0,1,1886.937,1308.5Zm0,4.886a1.554,1.554,0,1,0-1.554-1.554A1.556,1.556,0,0,0,1886.937,1313.384Z" transform="translate(-1883.605 -1308.498)" fill="#2ea94f"/>
              </g>
              <rect id="Rectangle_69" data-name="Rectangle 69" width="36.95" height="2.963" transform="translate(72.505 2.095) rotate(135)" fill="#2ea94f"/>
              <rect id="Rectangle_70" data-name="Rectangle 70" width="73.414" height="2.963" transform="translate(143.821 2.963) rotate(180)" fill="#2ea94f"/>
            </g>
            <g id="Group_86" data-name="Group 86" transform="translate(46.912 104.221)">
              <rect id="Rectangle_71" data-name="Rectangle 71" width="28.083" height="2.963" transform="translate(34.175 28.223) rotate(180)" fill="#2ea94f"/>
              <g id="Group_85" data-name="Group 85" transform="translate(0 23.41)">
                <path id="Path_39" data-name="Path 39" d="M1935.547,1266.165a3.332,3.332,0,1,1-3.332,3.332A3.336,3.336,0,0,1,1935.547,1266.165Zm0,4.886a1.554,1.554,0,1,0-1.554-1.554A1.556,1.556,0,0,0,1935.547,1271.051Z" transform="translate(-1932.215 -1266.165)" fill="#2ea94f"/>
              </g>
              <rect id="Rectangle_72" data-name="Rectangle 72" width="36.95" height="2.963" transform="translate(60.314 2.095) rotate(135)" fill="#2ea94f"/>
              <rect id="Rectangle_73" data-name="Rectangle 73" width="73.415" height="2.963" transform="translate(131.629 2.963) rotate(180)" fill="#2ea94f"/>
            </g>
          </g>
        </g>
      </g>
      <g id="Group_94" data-name="Group 94" transform="translate(127.3)">
        <g id="Group_93" data-name="Group 93">
          <g id="Group_90" data-name="Group 90" opacity="0.13">
            <path id="Path_40" data-name="Path 40" d="M2434.336,784.983a129.147,129.147,0,0,1-40.109-24.721,157.007,157.007,0,0,1-30.339-37.365,185.334,185.334,0,0,1-19.293-46.361,202.473,202.473,0,0,1-6.811-52.293,205.752,205.752,0,0,1,1.828-27.294l3.078-22.918,22.066,6.914a83.582,83.582,0,0,0,25.017,3.815,85.086,85.086,0,0,0,41.888-11.172l9.623-5.461,9.621,5.464c.143.081.285.157.428.234l.045.024c.2.11.407.22.61.331a85.078,85.078,0,0,0,40.8,10.581,83.569,83.569,0,0,0,25.015-3.815l22.066-6.915,3.079,22.918a205.721,205.721,0,0,1,1.828,27.295,202.526,202.526,0,0,1-6.692,51.845,185.653,185.653,0,0,1-18.967,46.043,157.724,157.724,0,0,1-29.836,37.266,129.881,129.881,0,0,1-39.471,24.959l-.347.139c-.4.161-.819.327-1.238.487l-6.946,2.647Z" transform="translate(-2331.286 -561.629)" opacity="0"/>
            <path id="Path_41" data-name="Path 41" d="M2432,782.65a129.144,129.144,0,0,1-40.11-24.721,157,157,0,0,1-30.339-37.365,185.322,185.322,0,0,1-19.294-46.361,202.483,202.483,0,0,1-6.811-52.293,205.8,205.8,0,0,1,1.828-27.294l3.078-22.918,22.067,6.914a83.581,83.581,0,0,0,25.016,3.815,85.086,85.086,0,0,0,41.888-11.173l9.623-5.461,9.621,5.464c.142.081.285.157.428.234l.045.024q.306.165.61.331a85.079,85.079,0,0,0,40.8,10.581,83.571,83.571,0,0,0,25.015-3.815l22.066-6.914,3.079,22.919a205.756,205.756,0,0,1,1.828,27.294,202.526,202.526,0,0,1-6.692,51.845,185.645,185.645,0,0,1-18.966,46.043,157.722,157.722,0,0,1-29.836,37.266,129.88,129.88,0,0,1-39.471,24.959l-.348.139c-.4.161-.819.327-1.238.487l-6.946,2.647Z" transform="translate(-2329.454 -559.796)" opacity="0.077"/>
            <path id="Path_42" data-name="Path 42" d="M2429.671,780.318a129.15,129.15,0,0,1-40.11-24.721,157,157,0,0,1-30.339-37.365,185.333,185.333,0,0,1-19.294-46.36,202.485,202.485,0,0,1-6.811-52.293,205.8,205.8,0,0,1,1.828-27.294l3.078-22.918,22.067,6.914a83.579,83.579,0,0,0,25.017,3.815,85.085,85.085,0,0,0,41.888-11.173l9.623-5.461,9.622,5.463c.142.081.285.157.428.234l.045.024q.305.165.61.331a85.078,85.078,0,0,0,40.8,10.581,83.568,83.568,0,0,0,25.015-3.815l22.066-6.914,3.079,22.919a205.8,205.8,0,0,1,1.828,27.294,202.516,202.516,0,0,1-6.692,51.845,185.662,185.662,0,0,1-18.966,46.043,157.722,157.722,0,0,1-29.837,37.266,129.875,129.875,0,0,1-39.471,24.96l-.348.139c-.4.161-.819.327-1.238.486l-6.947,2.647Z" transform="translate(-2327.621 -557.963)" opacity="0.154"/>
            <path id="Path_43" data-name="Path 43" d="M2427.338,777.985a129.148,129.148,0,0,1-40.11-24.721,157.009,157.009,0,0,1-30.339-37.365,185.336,185.336,0,0,1-19.293-46.361,202.473,202.473,0,0,1-6.811-52.293,205.8,205.8,0,0,1,1.828-27.294l3.078-22.918,22.067,6.913a83.583,83.583,0,0,0,25.017,3.815,85.086,85.086,0,0,0,41.888-11.172l9.623-5.461,9.621,5.464c.143.081.285.157.428.234l.045.024q.305.165.61.331a85.079,85.079,0,0,0,40.8,10.581,83.57,83.57,0,0,0,25.015-3.815l22.066-6.914,3.079,22.919a205.715,205.715,0,0,1,1.828,27.294,202.505,202.505,0,0,1-6.693,51.845,185.645,185.645,0,0,1-18.966,46.043,157.734,157.734,0,0,1-29.836,37.266,129.883,129.883,0,0,1-39.471,24.959l-.347.139c-.4.162-.819.327-1.238.487l-6.947,2.647Z" transform="translate(-2325.787 -556.13)" opacity="0.231"/>
            <path id="Path_44" data-name="Path 44" d="M2425.005,775.652a129.152,129.152,0,0,1-40.11-24.721,157,157,0,0,1-30.339-37.365,185.347,185.347,0,0,1-19.294-46.361,202.483,202.483,0,0,1-6.811-52.293,205.758,205.758,0,0,1,1.828-27.294l3.078-22.918,22.066,6.914a83.58,83.58,0,0,0,25.016,3.815,85.088,85.088,0,0,0,41.889-11.173l9.623-5.461,9.622,5.464c.142.081.285.157.428.234l.045.024q.305.165.61.331a85.075,85.075,0,0,0,40.8,10.581,83.561,83.561,0,0,0,25.015-3.815l22.066-6.914,3.079,22.919a205.675,205.675,0,0,1,1.828,27.295,202.506,202.506,0,0,1-6.693,51.845,185.638,185.638,0,0,1-18.966,46.043,157.734,157.734,0,0,1-29.836,37.266,129.881,129.881,0,0,1-39.471,24.959l-.348.139c-.4.161-.819.327-1.238.487l-6.946,2.647Z" transform="translate(-2323.954 -554.297)" opacity="0.308"/>
            <path id="Path_45" data-name="Path 45" d="M2422.673,773.319a129.154,129.154,0,0,1-40.11-24.721,157.01,157.01,0,0,1-30.339-37.365,185.318,185.318,0,0,1-19.293-46.361,202.473,202.473,0,0,1-6.812-52.293,205.794,205.794,0,0,1,1.828-27.294l3.078-22.918,22.067,6.914a83.583,83.583,0,0,0,25.017,3.815A85.087,85.087,0,0,0,2420,561.923l9.623-5.461,9.622,5.464c.142.081.285.157.428.234l.045.024q.305.165.61.331a85.077,85.077,0,0,0,40.8,10.581,83.569,83.569,0,0,0,25.015-3.815l22.066-6.914,3.079,22.919a205.762,205.762,0,0,1,1.828,27.295,202.516,202.516,0,0,1-6.692,51.845,185.636,185.636,0,0,1-18.967,46.043,157.7,157.7,0,0,1-29.836,37.266,129.879,129.879,0,0,1-39.471,24.959l-.347.139c-.4.161-.819.327-1.238.487l-6.947,2.647Z" transform="translate(-2322.121 -552.464)" opacity="0.385"/>
            <path id="Path_46" data-name="Path 46" d="M2420.339,770.986a129.145,129.145,0,0,1-40.11-24.721A157,157,0,0,1,2349.89,708.9a185.323,185.323,0,0,1-19.293-46.361,202.463,202.463,0,0,1-6.812-52.293,205.751,205.751,0,0,1,1.828-27.294l3.078-22.918,22.067,6.914a83.581,83.581,0,0,0,25.017,3.815,85.086,85.086,0,0,0,41.888-11.172l9.623-5.461,9.622,5.464c.143.081.285.157.428.234l.045.024c.2.11.407.22.61.331a85.078,85.078,0,0,0,40.8,10.581,83.571,83.571,0,0,0,25.015-3.815l22.066-6.915,3.079,22.919a205.713,205.713,0,0,1,1.828,27.294,202.516,202.516,0,0,1-6.693,51.845,185.667,185.667,0,0,1-18.966,46.043,157.726,157.726,0,0,1-29.836,37.266,129.876,129.876,0,0,1-39.471,24.959l-.347.139c-.4.161-.819.327-1.238.487l-6.947,2.647Z" transform="translate(-2320.288 -550.631)" opacity="0.462"/>
            <path id="Path_47" data-name="Path 47" d="M2418.007,768.653a129.149,129.149,0,0,1-40.11-24.721,157,157,0,0,1-30.339-37.365,185.339,185.339,0,0,1-19.294-46.361,202.482,202.482,0,0,1-6.811-52.293,205.792,205.792,0,0,1,1.828-27.294l3.078-22.918,22.066,6.914a83.579,83.579,0,0,0,25.017,3.815,85.085,85.085,0,0,0,41.888-11.172l9.623-5.461,9.621,5.464c.142.081.285.157.428.234l.045.024c.2.11.407.22.61.331a85.079,85.079,0,0,0,40.8,10.581,83.567,83.567,0,0,0,25.015-3.815l22.066-6.914,3.079,22.919a205.756,205.756,0,0,1,1.828,27.294,202.526,202.526,0,0,1-6.693,51.845,185.637,185.637,0,0,1-18.966,46.043,157.735,157.735,0,0,1-29.837,37.266,129.886,129.886,0,0,1-39.471,24.959l-.348.139c-.4.161-.819.327-1.238.486l-6.947,2.647Z" transform="translate(-2318.455 -548.797)" opacity="0.538"/>
            <path id="Path_48" data-name="Path 48" d="M2415.674,766.321a129.156,129.156,0,0,1-40.11-24.721,157.006,157.006,0,0,1-30.339-37.365,185.332,185.332,0,0,1-19.293-46.36,202.474,202.474,0,0,1-6.811-52.293,205.753,205.753,0,0,1,1.828-27.294l3.078-22.918,22.066,6.913a83.582,83.582,0,0,0,25.017,3.815A85.085,85.085,0,0,0,2413,554.925l9.623-5.461,9.622,5.464c.142.081.285.157.428.234l.045.024c.2.11.407.22.61.331a85.078,85.078,0,0,0,40.8,10.581,83.571,83.571,0,0,0,25.015-3.815l22.066-6.914,3.079,22.918a205.675,205.675,0,0,1,1.828,27.294,202.5,202.5,0,0,1-6.693,51.845,185.618,185.618,0,0,1-18.966,46.043,157.725,157.725,0,0,1-29.837,37.266,129.879,129.879,0,0,1-39.471,24.959l-.348.139c-.4.162-.819.327-1.238.487l-6.947,2.647Z" transform="translate(-2316.622 -546.965)" opacity="0.615"/>
            <path id="Path_49" data-name="Path 49" d="M2413.341,763.988a129.153,129.153,0,0,1-40.11-24.721,157.018,157.018,0,0,1-30.339-37.365,185.346,185.346,0,0,1-19.293-46.361,202.484,202.484,0,0,1-6.811-52.293,205.755,205.755,0,0,1,1.828-27.294l3.078-22.918,22.066,6.913a83.575,83.575,0,0,0,25.017,3.815,85.087,85.087,0,0,0,41.888-11.173l9.623-5.461,9.621,5.464c.142.081.285.157.428.234l.045.024c.2.11.407.22.609.331a85.08,85.08,0,0,0,40.8,10.581,83.567,83.567,0,0,0,25.015-3.815l22.066-6.914,3.079,22.918a205.675,205.675,0,0,1,1.828,27.295,202.513,202.513,0,0,1-6.693,51.845,185.623,185.623,0,0,1-18.967,46.043,157.706,157.706,0,0,1-29.836,37.266,129.874,129.874,0,0,1-39.471,24.96l-.347.139c-.4.162-.819.327-1.238.487l-6.947,2.647Z" transform="translate(-2314.789 -545.132)" opacity="0.692"/>
            <path id="Path_50" data-name="Path 50" d="M2411.008,761.655a129.156,129.156,0,0,1-40.109-24.721,157,157,0,0,1-30.339-37.365,185.325,185.325,0,0,1-19.293-46.361,202.474,202.474,0,0,1-6.811-52.293,205.756,205.756,0,0,1,1.828-27.294l3.078-22.918,22.066,6.914a83.588,83.588,0,0,0,25.017,3.815,85.089,85.089,0,0,0,41.888-11.172l9.623-5.461,9.622,5.463c.142.081.285.157.428.234l.045.024q.305.165.61.331a85.076,85.076,0,0,0,40.8,10.581,83.57,83.57,0,0,0,25.015-3.815l22.066-6.914,3.079,22.919a205.716,205.716,0,0,1,1.828,27.295,202.516,202.516,0,0,1-6.693,51.845,185.643,185.643,0,0,1-18.966,46.043,157.724,157.724,0,0,1-29.836,37.266,129.881,129.881,0,0,1-39.471,24.959l-.347.139c-.4.161-.819.327-1.238.487l-6.947,2.647Z" transform="translate(-2312.956 -543.299)" opacity="0.769"/>
            <path id="Path_51" data-name="Path 51" d="M2408.675,759.322a129.153,129.153,0,0,1-40.109-24.721,157.012,157.012,0,0,1-30.339-37.365,185.347,185.347,0,0,1-19.293-46.361,202.484,202.484,0,0,1-6.811-52.293,205.793,205.793,0,0,1,1.828-27.294l3.078-22.918,22.066,6.914a83.586,83.586,0,0,0,25.017,3.815A85.087,85.087,0,0,0,2406,547.926l9.623-5.461,9.621,5.464c.143.081.286.157.428.234l.045.024q.305.165.61.331a85.079,85.079,0,0,0,40.8,10.581,83.564,83.564,0,0,0,25.015-3.815l22.066-6.915,3.079,22.919a205.76,205.76,0,0,1,1.828,27.295,202.526,202.526,0,0,1-6.692,51.845,185.644,185.644,0,0,1-18.966,46.043,157.729,157.729,0,0,1-29.836,37.266,129.881,129.881,0,0,1-39.471,24.959l-.347.139c-.4.161-.819.327-1.238.487l-6.946,2.647Z" transform="translate(-2311.123 -541.465)" opacity="0.846"/>
            <path id="Path_52" data-name="Path 52" d="M2406.343,756.989a129.145,129.145,0,0,1-40.11-24.721,157.005,157.005,0,0,1-30.339-37.365,185.345,185.345,0,0,1-19.294-46.361,202.492,202.492,0,0,1-6.811-52.293,205.716,205.716,0,0,1,1.828-27.294l3.078-22.918,22.066,6.914a83.584,83.584,0,0,0,25.017,3.815,85.087,85.087,0,0,0,41.888-11.172l9.623-5.461,9.621,5.464c.143.081.285.157.428.234l.045.024q.306.165.61.331a85.08,85.08,0,0,0,40.8,10.581,83.571,83.571,0,0,0,25.015-3.815l22.066-6.914,3.079,22.919a205.754,205.754,0,0,1,1.828,27.294,202.516,202.516,0,0,1-6.693,51.845,185.658,185.658,0,0,1-18.966,46.043,157.741,157.741,0,0,1-29.837,37.266,129.88,129.88,0,0,1-39.471,24.959l-.347.138c-.4.161-.819.327-1.238.487l-6.946,2.647Z" transform="translate(-2309.29 -539.632)" opacity="0.923"/>
            <path id="Path_53" data-name="Path 53" d="M2404.01,754.656a129.157,129.157,0,0,1-40.11-24.721,157.009,157.009,0,0,1-30.339-37.365,185.342,185.342,0,0,1-19.294-46.36,202.485,202.485,0,0,1-6.811-52.293,205.793,205.793,0,0,1,1.828-27.294l3.078-22.918,22.066,6.914a83.582,83.582,0,0,0,25.017,3.815,85.085,85.085,0,0,0,41.888-11.173l9.623-5.461,9.622,5.464c.142.081.285.157.428.234l.045.024q.306.165.61.331a85.079,85.079,0,0,0,40.8,10.581,83.571,83.571,0,0,0,25.015-3.815l22.066-6.915,3.079,22.919a205.716,205.716,0,0,1,1.828,27.294,202.526,202.526,0,0,1-6.692,51.845,185.655,185.655,0,0,1-18.966,46.043,157.727,157.727,0,0,1-29.837,37.266,129.882,129.882,0,0,1-39.471,24.959l-.348.139c-.4.161-.819.327-1.238.487l-6.947,2.647Z" transform="translate(-2307.457 -537.799)"/>
          </g>
          <g id="Group_92" data-name="Group 92">
            <path id="Path_54" data-name="Path 54" d="M2404.01,754.656a129.157,129.157,0,0,1-40.11-24.721,157.009,157.009,0,0,1-30.339-37.365,185.342,185.342,0,0,1-19.294-46.36,202.485,202.485,0,0,1-6.811-52.293,205.793,205.793,0,0,1,1.828-27.294l3.078-22.918,22.066,6.914a83.582,83.582,0,0,0,25.017,3.815,85.085,85.085,0,0,0,41.888-11.173l9.623-5.461,9.622,5.464c.142.081.285.157.428.234l.045.024q.306.165.61.331a85.079,85.079,0,0,0,40.8,10.581,83.571,83.571,0,0,0,25.015-3.815l22.066-6.915,3.079,22.919a205.716,205.716,0,0,1,1.828,27.294,202.526,202.526,0,0,1-6.692,51.845,185.655,185.655,0,0,1-18.966,46.043,157.727,157.727,0,0,1-29.837,37.266,129.882,129.882,0,0,1-39.471,24.959l-.348.139c-.4.161-.819.327-1.238.487l-6.947,2.647Z" transform="translate(-2307.457 -537.799)" fill="url(#linear-gradient)"/>
            <path id="Path_55" data-name="Path 55" d="M2456.3,797.319a116.215,116.215,0,0,1-36.073-22.263,144.046,144.046,0,0,1-27.814-34.287,172.355,172.355,0,0,1-17.931-43.113,189.474,189.474,0,0,1-6.37-48.936,192.729,192.729,0,0,1,1.712-25.564l1.026-7.64,7.356,2.3a96.561,96.561,0,0,0,28.9,4.409,98.1,98.1,0,0,0,48.3-12.866l3.208-1.82,3.207,1.821c.238.135.479.265.719.395l.528.287a98.1,98.1,0,0,0,47.052,12.184,96.539,96.539,0,0,0,28.9-4.409l7.356-2.3,1.026,7.639a192.69,192.69,0,0,1,1.712,25.564,189.5,189.5,0,0,1-6.26,48.518,172.641,172.641,0,0,1-17.629,42.823,144.757,144.757,0,0,1-27.364,34.209,116.945,116.945,0,0,1-35.521,22.49l-.365.146c-.349.14-.7.279-1.05.413l-2.314.882Z" transform="translate(-2355.116 -592.603)" fill="url(#linear-gradient-2)"/>
            <path id="Path_56" data-name="Path 56" d="M2564.794,651.424a102.818,102.818,0,0,1-30.843,4.706,104.2,104.2,0,0,1-50.179-12.985c-.442-.243-.889-.477-1.329-.726a104.281,104.281,0,0,1-51.508,13.712,102.84,102.84,0,0,1-30.844-4.706,185.82,185.82,0,0,0-1.654,24.7c0,65.535,34.4,123.613,84.006,142.528.445-.17.886-.35,1.329-.526,48.893-19.439,82.676-77.055,82.676-142A185.765,185.765,0,0,0,2564.794,651.424Z" transform="translate(-2378.946 -620.005)" fill="#2ea94f"/>
          </g>
        </g>
      </g>
    </g>
    <g id="Mask_Group_2" data-name="Mask Group 2" opacity="0.09" clip-path="url(#clip-path)">
      <g id="Group_102" data-name="Group 102" transform="translate(258 -110.471)">
        <g id="Group_96" data-name="Group 96">
          <path id="Path_60" data-name="Path 60" d="M1116,535l-37.029-313.829h74.058Z" fill="#272525"/>
          <path id="Path_61" data-name="Path 61" d="M1116,535l37.029,313.829h-74.058Z" fill="#272525"/>
        </g>
        <g id="Group_97" data-name="Group 97">
          <path id="Path_62" data-name="Path 62" d="M1116,535,927.017,281.73,991.154,244.7Z" fill="#272525"/>
          <path id="Path_63" data-name="Path 63" d="M1116,535l188.983,253.269L1240.846,825.3Z" fill="#272525"/>
        </g>
        <g id="Group_98" data-name="Group 98">
          <path id="Path_64" data-name="Path 64" d="M1116,535,825.7,410.154l37.029-64.137Z" fill="#272525"/>
          <path id="Path_65" data-name="Path 65" d="M1116,535l290.3,124.846-37.029,64.137Z" fill="#272525"/>
        </g>
        <g id="Group_99" data-name="Group 99">
          <path id="Path_66" data-name="Path 66" d="M1116,535,802.171,572.029V497.971Z" fill="#272525"/>
          <path id="Path_67" data-name="Path 67" d="M1116,535l313.829-37.029v74.058Z" fill="#272525"/>
        </g>
        <g id="Group_100" data-name="Group 100">
          <path id="Path_68" data-name="Path 68" d="M1116,535,862.73,723.983,825.7,659.846Z" fill="#272525"/>
          <path id="Path_69" data-name="Path 69" d="M1116,535l253.27-188.983,37.029,64.137Z" fill="#272525"/>
        </g>
        <g id="Group_101" data-name="Group 101">
          <path id="Path_70" data-name="Path 70" d="M1116,535,991.154,825.3l-64.137-37.029Z" fill="#272525"/>
          <path id="Path_71" data-name="Path 71" d="M1116,535l124.846-290.3,64.136,37.029Z" fill="#272525"/>
        </g>
      </g>
    </g>
    <g id="Group_309" data-name="Group 309" transform="matrix(0.998, 0.07, -0.07, 0.998, 807.242, 266.751)">
      <path id="Path_314" data-name="Path 314" d="M544.569,184.217c-.834,0-1.756-.572-1.85-2.176a15.074,15.074,0,0,1,.09-2.3,11.6,11.6,0,0,0,.066-2.2c-.025-.26-.047-.52-.066-.78-.057.024-.116.047-.175.068a8.027,8.027,0,0,1-.8,1.995,1.516,1.516,0,0,1-1.322.9,1.484,1.484,0,0,1-1.288-.835c-.308-.508-.622-1.013-.954-1.507A2.434,2.434,0,0,1,538,175.46a2.282,2.282,0,0,1-1.53-2.816,6.586,6.586,0,0,0-.161-3.8,3.18,3.18,0,0,1-.131-1.958,1.537,1.537,0,0,1-.643-.41,1.817,1.817,0,0,1-.431-1.431c.045-.63-.073-.781-.353-.976a1.739,1.739,0,0,1-.837-1.57l-.083,0a4.765,4.765,0,0,1-4.773,3.262c-.673.01-1.349.032-2.019.061l-.194,0c-1.713,0-3.008-.953-3.849-2.832a15.14,15.14,0,0,1-1.388-7.473,9.114,9.114,0,0,0-.3-4.221,3.76,3.76,0,0,1,1.7-4.324,8.027,8.027,0,0,1,1.352-.715.935.935,0,0,0,.646-1.181,2.177,2.177,0,0,0-.4-1.1,2.229,2.229,0,0,1-.494-1.689,2.28,2.28,0,0,1,.994-1.5,1.464,1.464,0,0,0,.472-.479,1.777,1.777,0,0,1,.8-.819l-.014-.039a5.046,5.046,0,0,1,1.615-5.738,2.129,2.129,0,0,1,1.417-.5,4.606,4.606,0,0,1,.546.042c.324.039.648.093.973.147.237.038.473.078.711.112.046,0,.094.009.142.009a.529.529,0,0,0,.353-.12,2.4,2.4,0,0,1,1.505-.485,5.371,5.371,0,0,1,.9.1,8.262,8.262,0,0,1,.887.207l.186.051a1.712,1.712,0,0,1,1.677-.913l.182,0c.349,0,.367-.042.434-.2a2.61,2.61,0,0,1,2.426-1.616,3.714,3.714,0,0,0,2.7-1.907,2.038,2.038,0,0,0-.673-.861l-.234-.158c-.107-.07-.216-.14-.319-.215a3.313,3.313,0,0,1-1.483-4.011,1.071,1.071,0,0,0,.088-.387,1.312,1.312,0,0,1-.743-1.03c-.025-.226-.033-.3-.838-.405a3.5,3.5,0,0,1-2.867-2.2,26.71,26.71,0,0,0-1.419-2.571l-.356-.6a2.462,2.462,0,0,1,.183-2.935.74.74,0,0,0,.154-.26,2.266,2.266,0,0,1,1.97-1.8,9,9,0,0,1,1.574-.146,7.1,7.1,0,0,1,2.8.559,14.042,14.042,0,0,0,5.472,1.319,5.5,5.5,0,0,1,1.424.249,3.756,3.756,0,0,0,.885.174h.239a25.081,25.081,0,0,0,4.865-.494,19.539,19.539,0,0,0,4.862-1.755,2.209,2.209,0,0,1,.941-1.679.843.843,0,0,0,.314-1,3.016,3.016,0,0,1,.123-2.521,5.176,5.176,0,0,1-3.058-3.979,2.67,2.67,0,0,1,2.065-3.238.64.64,0,0,0,.067-.018l-.008-.031a2.712,2.712,0,0,1,1.413-3.193,11.941,11.941,0,0,0,1.175-.864c.248-.2.5-.394.749-.582.642-.473.7-.571.668-.824a1.9,1.9,0,0,1,1.43-1.981,14.848,14.848,0,0,0,1.948-.949c.48-.262.96-.524,1.456-.753.317-.147.3-.208.286-.32a3.5,3.5,0,0,1,1.793-3.95c-2.148-1.948-1.348-3.733-.153-5.387l.277-.376c-.067-.11-.148-.233-.2-.311a1.723,1.723,0,0,1-.409-1.086c.015-.4-.136-.6-.848-1.153a2.983,2.983,0,0,1-1.02-3.579,3.88,3.88,0,0,1-.531-1.54,2.073,2.073,0,0,0-.214-.738l-.115-.163c-.126-.18-.257-.366-.329-.384a1.9,1.9,0,0,1-1.493-1.807,2.546,2.546,0,0,1-.889-.528l-.413-.331a1.965,1.965,0,0,0-.966-.553,1.542,1.542,0,0,1-1.3-1.172,2.547,2.547,0,0,1,.4-2.57,1.523,1.523,0,0,0,.417-.645,2.035,2.035,0,0,1,1.149-1.15,4.457,4.457,0,0,0,1.262-.9,7.47,7.47,0,0,1,1.481-1.107,6.394,6.394,0,0,1,2.447-2.084l.044-.025a3.48,3.48,0,0,1,1.232-1.876,2.555,2.555,0,0,1,.022-.3,2.181,2.181,0,0,1,2.157-1.976,2.367,2.367,0,0,1,1.228.356c.273.167.55.322.827.478l.018.01a2.879,2.879,0,0,1,2.261-1.777,1.818,1.818,0,0,1,1.778-1.255,2.474,2.474,0,0,1,.279.016h.019a1.927,1.927,0,0,0,1.025-.4l.2-.123c.456-.269.521-.328.577-.517a1.778,1.778,0,0,1,1.844-1.19,2.807,2.807,0,0,1,3.049-2.218l.167,0c.143,0,.287.005.433.011.119,0,.239.009.356.009.414,0,.551-.061.672-.181a1.345,1.345,0,0,1,.946-.379h.09l.121.016a1.458,1.458,0,0,0,.233.02,2.611,2.611,0,0,0,1.535-.772,4.922,4.922,0,0,1,3.15-.873l.312-.01c.52-.02,1.043-.026,1.565-.026l2.243.013c.141,0,.23,0,.32.012l.035,0a12.822,12.822,0,0,1,2.076-.536c.334-.066.665-.131.992-.213a11.275,11.275,0,0,1,2.765-.409,6.828,6.828,0,0,1,1.395.139,8.1,8.1,0,0,0,1.619.209,3.131,3.131,0,0,0,1.264-.242,3.216,3.216,0,0,1,1.247-.238,7.277,7.277,0,0,1,1.714.267,1.909,1.909,0,0,0,.464.064,1.847,1.847,0,0,0,.742-.17,3.553,3.553,0,0,1,1.4-.367,2.535,2.535,0,0,1,1.92,1.081,1.675,1.675,0,0,0,1.066.558,4.048,4.048,0,0,1,3.275,4.292c-.3,2-1.665,2.158-2.078,2.158a2.87,2.87,0,0,1-1.487-.48,1.01,1.01,0,0,0-.114-.007,1.769,1.769,0,0,0-.467.082c-.13.034-.258.067-.386.1l-.406.092a6.987,6.987,0,0,1-1.631.243l-.19,0a2.186,2.186,0,0,1-1.443-.445,2.516,2.516,0,0,0-1.469-.406,6.03,6.03,0,0,1-1.781-.367,3.582,3.582,0,0,0-.592.278,5.041,5.041,0,0,1-3.846.487c-.115.1-.233.192-.357.283a2.137,2.137,0,0,1-.663,2.23h0c.015,0-.013.1-.034.167a3.947,3.947,0,0,1-.17.481,3.6,3.6,0,0,1-1.092,1.3c-.292.243-.474.4-.531.573a1.346,1.346,0,0,1-1.385.9c-.1,0-.206-.007-.311-.013l-.141-.008a2.732,2.732,0,0,1-.941,1.944,8.632,8.632,0,0,1-2.341,1.478,2.638,2.638,0,0,0-1.2.769,1.642,1.642,0,0,1-1.416.726c-.105,0-.216-.008-.329-.018s-.252-.011-.256-.011c0,.049,0,.112,0,.19a4.046,4.046,0,0,1-.345,2.233,3.159,3.159,0,0,1,.221,3.832,1.747,1.747,0,0,1-.1.151,1.41,1.41,0,0,0,.256.171,2.946,2.946,0,0,0,1.3.41,1.556,1.556,0,0,0,.631-.139,6.223,6.223,0,0,1,2.53-.491,15.97,15.97,0,0,1,2.576.276,1.556,1.556,0,0,0,.253.024c.171,0,.206-.039.244-.081a1.8,1.8,0,0,1,1.357-.645,2.04,2.04,0,0,1,1.054.317,4.895,4.895,0,0,0,.594.294,1.838,1.838,0,0,1,1.114,2.188c-.016.083-.072.456-.072.456-.163.96.129,1.167.561,1.354a4.791,4.791,0,0,1,1.322.943,6.014,6.014,0,0,0,2.042,1.077c.378.142.754.287,1.116.455a3.2,3.2,0,0,0,1.091.14,6.952,6.952,0,0,1,1.44.152,36.848,36.848,0,0,0,4.407.826,2.193,2.193,0,0,1,1.842,1.083,2.315,2.315,0,0,1-.222,2.236l-.164.306a4.679,4.679,0,0,1-1.368,1.767s-.009.87-.011,1.176a3.005,3.005,0,0,1,1.558.716c.089.071.115.071.14.071a.575.575,0,0,0,.117-.015,4.145,4.145,0,0,1,.818-.087,2.953,2.953,0,0,1,2.344,1.112,1.4,1.4,0,0,0,1.084.514,3.049,3.049,0,0,1,1.7.559,1.967,1.967,0,0,1,.966,1.672,1.943,1.943,0,0,1-1,1.6,3.82,3.82,0,0,1-.443,2.465,6.142,6.142,0,0,0-.24.583,6.108,6.108,0,0,1-1.753,2.555A5.453,5.453,0,0,1,618,95.753c-1.413.125-1.876.388-2.063,1.173l-.1.429-.372.24c-.26.167-.312.374-.385,1.113-.022.223-.046.448-.083.669a3.857,3.857,0,0,1-.529,1.281,1.962,1.962,0,0,1-1.737,1.1,2.3,2.3,0,0,1-.874-.183,3.178,3.178,0,0,0-1.144-.306,1.193,1.193,0,0,0-.288.035,13.1,13.1,0,0,1-.271,1.443,5.761,5.761,0,0,0-.227,2.089,2.158,2.158,0,0,0,.059.313,3.45,3.45,0,0,1,1.553,2.728c.035.242.055.49.072.736a6.647,6.647,0,0,0,.083.739,4.49,4.49,0,0,1-1.319,3.9,1.563,1.563,0,0,1-.912.6c-.427.083-.613.346-1.034,1.076-.1.172-.2.346-.308.518a4.052,4.052,0,0,1-2.379,2.007,3.229,3.229,0,0,1-3.147,2.075c-.978.026-1.549.116-1.958.53-.1.1-.437.426-.437.426-.555.543-.995.973-1.678.973a2.412,2.412,0,0,1-1.466-.675l-.193-.146a4.856,4.856,0,0,1-2.068-3.456,3.344,3.344,0,0,1-.873.455,2.44,2.44,0,0,1-.812.141,2.081,2.081,0,0,1-2.117-2.08c0-.143-.009-.238-.015-.3a1.4,1.4,0,0,1-.824-.768l-.421.044c-.472.042-.515.13-.608.323a3.152,3.152,0,0,1-1.906,1.507l-.2.082c-.449.186-.544.388-.569.716a7.279,7.279,0,0,1-.351,1.776,2.877,2.877,0,0,1-2.57,1.951,2.247,2.247,0,0,1-.888-.183,5.1,5.1,0,0,1-.908,1.118,2.972,2.972,0,0,0-.57.685l-.1.193a1.423,1.423,0,0,0-.222.586,4.179,4.179,0,0,1-.934,3.019,6.854,6.854,0,0,0-.506.8c-.1.182-.208.364-.32.54a3.415,3.415,0,0,1-2.032,1.622c-.392.1-.665.371-1.007.994a2.5,2.5,0,0,1-.428.718c.021.037.047.083.083.142a4.132,4.132,0,0,1,.182,3.709,3.608,3.608,0,0,1-.4.739c-.05.076-.1.151-.146.231a2.277,2.277,0,0,1-2.08,1.271,3.5,3.5,0,0,1-.833-.111,2.256,2.256,0,0,1-1.868-2.091,1.732,1.732,0,0,1-.159.077,2.629,2.629,0,0,1-.177.869,2.792,2.792,0,0,1,0,2.482,2.729,2.729,0,0,1-2.124,1.438,32.909,32.909,0,0,1-3.326.252c-.241.009-.261.042-.322.141a5.492,5.492,0,0,1-.72.959c-.366.372-.5.8-.122,1.9a4.826,4.826,0,0,1,.318,2.343,3.549,3.549,0,0,0-.015.55h.174a2.3,2.3,0,0,1,2,.677,1.594,1.594,0,0,1,.277,1.136,1.909,1.909,0,0,1,1,.588,2.367,2.367,0,0,1,.438,1.9,12.82,12.82,0,0,0-.17,2.293,1.861,1.861,0,0,1-1.453,2.059c-.939.22-1.55.675-1.48,2.178a2.548,2.548,0,0,1-1.472,2.779,3.612,3.612,0,0,1-.615,2.25,4.341,4.341,0,0,0-.842,2.926,1.488,1.488,0,0,1-.622,1.761,2.733,2.733,0,0,0-.83,1.068,7.982,7.982,0,0,1-.619.973,8.566,8.566,0,0,0-.972,1.849l-.2.462c-.112.252-.071.587.143,1.2a2.266,2.266,0,0,1,.025,1.863,2.615,2.615,0,0,1,.162.461,2.28,2.28,0,0,1-1.129,2.825c.027,0-.021.211-.054.348s-.059.255-.1.377a4.358,4.358,0,0,1-1.278,2.329,2.149,2.149,0,0,1-1.393.584,1.818,1.818,0,0,1-1.306-.582,3.05,3.05,0,0,1-.789.105,2.977,2.977,0,0,1-1.221-.263,1.063,1.063,0,0,0-.441-.1,3.078,3.078,0,0,0-1.264.469c-.17.089-.345.18-.526.266.07,1.69-.478,2.257-2.2,2.468a2.639,2.639,0,0,0-1.154.462A2.6,2.6,0,0,1,544.569,184.217Z" transform="translate(0 0)" fill="#fff"/>
    </g>
  </g>
</svg>
